M48
;GenerationSoftware,Autodesk,EAGLE,9.6.2*%
;CreationDate,2024-03-02T08:56:14Z*%
FMAT,2
ICI,OFF
METRIC,TZ,000.000
T9C0.600
T8C0.650
T7C0.813
T6C0.900
T5C1.016
T4C2.500
T3C2.800
T2C3.200
T1C5.000
%
G90
M71
T1
X62000Y52000
T2
X4000Y77000
X97000Y77000
X3000Y3000
X97000Y3000
T3
X90100Y13750
X63500Y9900
X89100Y58250
X9900Y38500
X90100Y31500
X9900Y53750
T4
X46000Y9900
X34000Y9900
X90100Y45000
X25250Y60100
X9900Y19000
T5
X45850Y76850
X48390Y74310
X48390Y76850
X50930Y74310
X50930Y76850
X53470Y74310
X53470Y76850
X56010Y74310
X56010Y76850
X58550Y74310
X58550Y76850
X61090Y74310
X61090Y76850
X63630Y74310
X63630Y76850
X66170Y74310
X66170Y76850
X68710Y74310
X68710Y76850
X71250Y74310
X71250Y76850
X36760Y53800
X39300Y53800
X41840Y53800
X43310Y74310
X43310Y76850
X45850Y74310
T6
X26500Y66600
X24000Y66600
T7
X64550Y65230
X67090Y57610
X64550Y57610
X59470Y65230
X62010Y65230
X62010Y57610
X59470Y57610
X67080Y70000
X56920Y70000
X67090Y65230
T8
X22540Y26320
X22540Y28860
X20000Y28860
X20000Y31400
X22540Y31400
X22540Y33940
X20000Y33940
X20000Y36480
X22540Y36480
X22540Y39020
X20000Y39020
X20000Y41560
X22540Y41560
X22540Y44100
X20000Y44100
X22540Y46640
X20000Y46640
X20000Y49180
X22540Y49180
X22540Y51720
X20000Y51720
X80960Y6000
X83500Y6000
X83500Y8540
X80960Y8540
X80960Y11080
X83500Y11080
X83500Y13620
X80960Y13620
X80960Y16160
X83500Y18700
X80960Y18700
X80960Y21240
X83500Y21240
X83500Y23780
X80960Y23780
X80960Y26320
X83500Y26320
X83500Y28860
X80960Y28860
X80960Y31400
X83500Y31400
X83500Y33940
X80960Y33940
X80960Y36480
X83500Y36480
X83500Y39020
X80960Y39020
X80960Y41560
X83500Y41560
X83500Y44100
X80960Y44100
X83500Y46640
X80960Y46640
X80960Y49180
X83500Y49180
X83500Y51720
X80960Y51720
X20000Y6000
X22540Y6000
X22540Y8540
X20000Y8540
X20000Y11080
X22540Y11080
X22540Y13620
X20000Y13620
X20000Y16160
X22540Y18700
X20000Y18700
X20000Y21240
X22540Y21240
X22540Y23780
X20000Y23780
X20000Y26320
T9
X3400Y21500
X66000Y3400
X68500Y3400
X3400Y19000
X96600Y7500
X96600Y10000
X96600Y12500
X96600Y15000
X96600Y17500
X96600Y20000
X3400Y16500
X96600Y42500
X96600Y45000
X96600Y47500
X22540Y16160
X31500Y3400
X34000Y3400
X36500Y3400
X95600Y54500
X43500Y3400
X46000Y3400
X63500Y3400
X95600Y57000
X3400Y43500
X3400Y41000
X3400Y38500
X3400Y36000
X3400Y33500
X95600Y59500
X96600Y26500
X96600Y29000
X96600Y31500
X96600Y34000
X96600Y36500
X95600Y62000
X3400Y57500
X3400Y55000
X3400Y52500
X3400Y50000
X83500Y16160
X58500Y3400
X61000Y3400
X48500Y3400
M30