G04 EAGLE Gerber RS-274X export*
G75*
%MOMM*%
%FSLAX34Y34*%
%LPD*%
%INBottom Solder Mask*%
%IPPOS*%
%AMOC8*
5,1,8,0,0,1.08239X$1,22.5*%
G01*
%ADD10C,3.403200*%
%ADD11C,5.203200*%
%ADD12C,1.524000*%
%ADD13P,1.869504X8X22.500000*%
%ADD14C,1.361200*%
%ADD15C,1.311200*%
%ADD16C,1.727200*%
%ADD17P,1.649562X8X202.500000*%
%ADD18R,1.311200X1.311200*%
%ADD19C,3.719200*%
%ADD20C,4.019200*%
%ADD21C,1.611200*%
%ADD22R,1.611200X1.611200*%


D10*
X40000Y770000D03*
X970000Y770000D03*
X30000Y30000D03*
X970000Y30000D03*
D11*
X620000Y520000D03*
D12*
X594700Y569496D02*
X594700Y582704D01*
X620100Y582704D02*
X620100Y569496D01*
X620100Y645696D02*
X620100Y658904D01*
X594700Y658904D02*
X594700Y645696D01*
X645500Y582704D02*
X645500Y569496D01*
X670900Y569496D02*
X670900Y582704D01*
X645500Y645696D02*
X645500Y658904D01*
X670900Y658904D02*
X670900Y645696D01*
D13*
X433100Y743100D03*
X433100Y768500D03*
X458500Y743100D03*
X458500Y768500D03*
X483900Y743100D03*
X483900Y768500D03*
X509300Y743100D03*
X509300Y768500D03*
X534700Y743100D03*
X534700Y768500D03*
X560100Y743100D03*
X560100Y768500D03*
X585500Y743100D03*
X585500Y768500D03*
X610900Y743100D03*
X610900Y768500D03*
X636300Y743100D03*
X636300Y768500D03*
X661700Y743100D03*
X661700Y768500D03*
X687100Y743100D03*
X687100Y768500D03*
X712500Y743100D03*
X712500Y768500D03*
D14*
X200000Y60000D03*
X225400Y60000D03*
X225400Y85400D03*
X200000Y85400D03*
X200000Y110800D03*
X225400Y110800D03*
X225400Y136200D03*
X200000Y136200D03*
X200000Y161600D03*
D15*
X225400Y161600D03*
D14*
X225400Y187000D03*
X200000Y187000D03*
X200000Y212400D03*
X225400Y212400D03*
X225400Y237800D03*
X200000Y237800D03*
X200000Y263200D03*
X225400Y263200D03*
X225400Y288600D03*
X200000Y288600D03*
X200000Y314000D03*
X225400Y314000D03*
X225400Y339400D03*
X200000Y339400D03*
X200000Y364800D03*
X225400Y364800D03*
X225400Y390200D03*
X200000Y390200D03*
X200000Y415600D03*
X225400Y415600D03*
X225400Y441000D03*
X200000Y441000D03*
X225400Y466400D03*
X200000Y466400D03*
X200000Y491800D03*
X225400Y491800D03*
X225400Y517200D03*
X200000Y517200D03*
X809600Y60000D03*
X835000Y60000D03*
X835000Y85400D03*
X809600Y85400D03*
X809600Y110800D03*
X835000Y110800D03*
X835000Y136200D03*
X809600Y136200D03*
X809600Y161600D03*
D15*
X835000Y161600D03*
D14*
X835000Y187000D03*
X809600Y187000D03*
X809600Y212400D03*
X835000Y212400D03*
X835000Y237800D03*
X809600Y237800D03*
X809600Y263200D03*
X835000Y263200D03*
X835000Y288600D03*
X809600Y288600D03*
X809600Y314000D03*
X835000Y314000D03*
X835000Y339400D03*
X809600Y339400D03*
X809600Y364800D03*
X835000Y364800D03*
X835000Y390200D03*
X809600Y390200D03*
X809600Y415600D03*
X835000Y415600D03*
X835000Y441000D03*
X809600Y441000D03*
X835000Y466400D03*
X809600Y466400D03*
X809600Y491800D03*
X835000Y491800D03*
X835000Y517200D03*
X809600Y517200D03*
D16*
X367600Y530380D02*
X367600Y545620D01*
X393000Y545620D02*
X393000Y530380D01*
X418400Y530380D02*
X418400Y545620D01*
D17*
X670800Y700000D03*
X569200Y700000D03*
D15*
X34000Y215000D03*
D18*
X34000Y190000D03*
X34000Y165000D03*
D19*
X99000Y172420D02*
X99000Y207580D01*
D15*
X956000Y545000D03*
D18*
X956000Y570000D03*
X956000Y595000D03*
X956000Y620000D03*
D20*
X891000Y601580D02*
X891000Y563420D01*
D15*
X585000Y34000D03*
D18*
X610000Y34000D03*
X635000Y34000D03*
X660000Y34000D03*
X685000Y34000D03*
D20*
X654080Y99000D02*
X615920Y99000D01*
D18*
X966000Y75000D03*
X966000Y100000D03*
X966000Y125000D03*
X966000Y150000D03*
X966000Y175000D03*
X966000Y200000D03*
D20*
X901000Y156580D02*
X901000Y118420D01*
D15*
X966000Y425000D03*
D18*
X966000Y450000D03*
X966000Y475000D03*
D19*
X901000Y467580D02*
X901000Y432420D01*
D15*
X315000Y34000D03*
D18*
X340000Y34000D03*
X365000Y34000D03*
D19*
X357580Y99000D02*
X322420Y99000D01*
D15*
X435000Y34000D03*
D18*
X460000Y34000D03*
X485000Y34000D03*
D19*
X477580Y99000D02*
X442420Y99000D01*
D15*
X34000Y435000D03*
D18*
X34000Y410000D03*
X34000Y385000D03*
X34000Y360000D03*
X34000Y335000D03*
D20*
X99000Y365920D02*
X99000Y404080D01*
D15*
X966000Y265000D03*
D18*
X966000Y290000D03*
X966000Y315000D03*
X966000Y340000D03*
X966000Y365000D03*
D20*
X901000Y334080D02*
X901000Y295920D01*
D15*
X34000Y575000D03*
D18*
X34000Y550000D03*
X34000Y525000D03*
X34000Y500000D03*
D20*
X99000Y518420D02*
X99000Y556580D01*
D21*
X265000Y666000D03*
D22*
X240000Y666000D03*
D19*
X234920Y601000D02*
X270080Y601000D01*
M02*
