G04 EAGLE Gerber RS-274X export*
G75*
%MOMM*%
%FSLAX34Y34*%
%LPD*%
%INMechanical*%
%IPPOS*%
%AMOC8*
5,1,8,0,0,1.08239X$1,22.5*%
G01*
%ADD10C,0.000000*%
%ADD11C,0.254000*%


D10*
X0Y0D02*
X1000000Y0D01*
X1000000Y800000D01*
X0Y800000D01*
X0Y0D01*
X24000Y770000D02*
X24005Y770393D01*
X24019Y770785D01*
X24043Y771177D01*
X24077Y771568D01*
X24120Y771959D01*
X24173Y772348D01*
X24236Y772735D01*
X24307Y773121D01*
X24389Y773506D01*
X24479Y773888D01*
X24580Y774267D01*
X24689Y774645D01*
X24808Y775019D01*
X24935Y775390D01*
X25072Y775758D01*
X25218Y776123D01*
X25373Y776484D01*
X25536Y776841D01*
X25708Y777194D01*
X25889Y777542D01*
X26079Y777886D01*
X26276Y778226D01*
X26482Y778560D01*
X26696Y778889D01*
X26919Y779213D01*
X27149Y779531D01*
X27386Y779844D01*
X27632Y780150D01*
X27885Y780451D01*
X28145Y780745D01*
X28412Y781033D01*
X28686Y781314D01*
X28967Y781588D01*
X29255Y781855D01*
X29549Y782115D01*
X29850Y782368D01*
X30156Y782614D01*
X30469Y782851D01*
X30787Y783081D01*
X31111Y783304D01*
X31440Y783518D01*
X31774Y783724D01*
X32114Y783921D01*
X32458Y784111D01*
X32806Y784292D01*
X33159Y784464D01*
X33516Y784627D01*
X33877Y784782D01*
X34242Y784928D01*
X34610Y785065D01*
X34981Y785192D01*
X35355Y785311D01*
X35733Y785420D01*
X36112Y785521D01*
X36494Y785611D01*
X36879Y785693D01*
X37265Y785764D01*
X37652Y785827D01*
X38041Y785880D01*
X38432Y785923D01*
X38823Y785957D01*
X39215Y785981D01*
X39607Y785995D01*
X40000Y786000D01*
X40393Y785995D01*
X40785Y785981D01*
X41177Y785957D01*
X41568Y785923D01*
X41959Y785880D01*
X42348Y785827D01*
X42735Y785764D01*
X43121Y785693D01*
X43506Y785611D01*
X43888Y785521D01*
X44267Y785420D01*
X44645Y785311D01*
X45019Y785192D01*
X45390Y785065D01*
X45758Y784928D01*
X46123Y784782D01*
X46484Y784627D01*
X46841Y784464D01*
X47194Y784292D01*
X47542Y784111D01*
X47886Y783921D01*
X48226Y783724D01*
X48560Y783518D01*
X48889Y783304D01*
X49213Y783081D01*
X49531Y782851D01*
X49844Y782614D01*
X50150Y782368D01*
X50451Y782115D01*
X50745Y781855D01*
X51033Y781588D01*
X51314Y781314D01*
X51588Y781033D01*
X51855Y780745D01*
X52115Y780451D01*
X52368Y780150D01*
X52614Y779844D01*
X52851Y779531D01*
X53081Y779213D01*
X53304Y778889D01*
X53518Y778560D01*
X53724Y778226D01*
X53921Y777886D01*
X54111Y777542D01*
X54292Y777194D01*
X54464Y776841D01*
X54627Y776484D01*
X54782Y776123D01*
X54928Y775758D01*
X55065Y775390D01*
X55192Y775019D01*
X55311Y774645D01*
X55420Y774267D01*
X55521Y773888D01*
X55611Y773506D01*
X55693Y773121D01*
X55764Y772735D01*
X55827Y772348D01*
X55880Y771959D01*
X55923Y771568D01*
X55957Y771177D01*
X55981Y770785D01*
X55995Y770393D01*
X56000Y770000D01*
X55995Y769607D01*
X55981Y769215D01*
X55957Y768823D01*
X55923Y768432D01*
X55880Y768041D01*
X55827Y767652D01*
X55764Y767265D01*
X55693Y766879D01*
X55611Y766494D01*
X55521Y766112D01*
X55420Y765733D01*
X55311Y765355D01*
X55192Y764981D01*
X55065Y764610D01*
X54928Y764242D01*
X54782Y763877D01*
X54627Y763516D01*
X54464Y763159D01*
X54292Y762806D01*
X54111Y762458D01*
X53921Y762114D01*
X53724Y761774D01*
X53518Y761440D01*
X53304Y761111D01*
X53081Y760787D01*
X52851Y760469D01*
X52614Y760156D01*
X52368Y759850D01*
X52115Y759549D01*
X51855Y759255D01*
X51588Y758967D01*
X51314Y758686D01*
X51033Y758412D01*
X50745Y758145D01*
X50451Y757885D01*
X50150Y757632D01*
X49844Y757386D01*
X49531Y757149D01*
X49213Y756919D01*
X48889Y756696D01*
X48560Y756482D01*
X48226Y756276D01*
X47886Y756079D01*
X47542Y755889D01*
X47194Y755708D01*
X46841Y755536D01*
X46484Y755373D01*
X46123Y755218D01*
X45758Y755072D01*
X45390Y754935D01*
X45019Y754808D01*
X44645Y754689D01*
X44267Y754580D01*
X43888Y754479D01*
X43506Y754389D01*
X43121Y754307D01*
X42735Y754236D01*
X42348Y754173D01*
X41959Y754120D01*
X41568Y754077D01*
X41177Y754043D01*
X40785Y754019D01*
X40393Y754005D01*
X40000Y754000D01*
X39607Y754005D01*
X39215Y754019D01*
X38823Y754043D01*
X38432Y754077D01*
X38041Y754120D01*
X37652Y754173D01*
X37265Y754236D01*
X36879Y754307D01*
X36494Y754389D01*
X36112Y754479D01*
X35733Y754580D01*
X35355Y754689D01*
X34981Y754808D01*
X34610Y754935D01*
X34242Y755072D01*
X33877Y755218D01*
X33516Y755373D01*
X33159Y755536D01*
X32806Y755708D01*
X32458Y755889D01*
X32114Y756079D01*
X31774Y756276D01*
X31440Y756482D01*
X31111Y756696D01*
X30787Y756919D01*
X30469Y757149D01*
X30156Y757386D01*
X29850Y757632D01*
X29549Y757885D01*
X29255Y758145D01*
X28967Y758412D01*
X28686Y758686D01*
X28412Y758967D01*
X28145Y759255D01*
X27885Y759549D01*
X27632Y759850D01*
X27386Y760156D01*
X27149Y760469D01*
X26919Y760787D01*
X26696Y761111D01*
X26482Y761440D01*
X26276Y761774D01*
X26079Y762114D01*
X25889Y762458D01*
X25708Y762806D01*
X25536Y763159D01*
X25373Y763516D01*
X25218Y763877D01*
X25072Y764242D01*
X24935Y764610D01*
X24808Y764981D01*
X24689Y765355D01*
X24580Y765733D01*
X24479Y766112D01*
X24389Y766494D01*
X24307Y766879D01*
X24236Y767265D01*
X24173Y767652D01*
X24120Y768041D01*
X24077Y768432D01*
X24043Y768823D01*
X24019Y769215D01*
X24005Y769607D01*
X24000Y770000D01*
X954000Y770000D02*
X954005Y770393D01*
X954019Y770785D01*
X954043Y771177D01*
X954077Y771568D01*
X954120Y771959D01*
X954173Y772348D01*
X954236Y772735D01*
X954307Y773121D01*
X954389Y773506D01*
X954479Y773888D01*
X954580Y774267D01*
X954689Y774645D01*
X954808Y775019D01*
X954935Y775390D01*
X955072Y775758D01*
X955218Y776123D01*
X955373Y776484D01*
X955536Y776841D01*
X955708Y777194D01*
X955889Y777542D01*
X956079Y777886D01*
X956276Y778226D01*
X956482Y778560D01*
X956696Y778889D01*
X956919Y779213D01*
X957149Y779531D01*
X957386Y779844D01*
X957632Y780150D01*
X957885Y780451D01*
X958145Y780745D01*
X958412Y781033D01*
X958686Y781314D01*
X958967Y781588D01*
X959255Y781855D01*
X959549Y782115D01*
X959850Y782368D01*
X960156Y782614D01*
X960469Y782851D01*
X960787Y783081D01*
X961111Y783304D01*
X961440Y783518D01*
X961774Y783724D01*
X962114Y783921D01*
X962458Y784111D01*
X962806Y784292D01*
X963159Y784464D01*
X963516Y784627D01*
X963877Y784782D01*
X964242Y784928D01*
X964610Y785065D01*
X964981Y785192D01*
X965355Y785311D01*
X965733Y785420D01*
X966112Y785521D01*
X966494Y785611D01*
X966879Y785693D01*
X967265Y785764D01*
X967652Y785827D01*
X968041Y785880D01*
X968432Y785923D01*
X968823Y785957D01*
X969215Y785981D01*
X969607Y785995D01*
X970000Y786000D01*
X970393Y785995D01*
X970785Y785981D01*
X971177Y785957D01*
X971568Y785923D01*
X971959Y785880D01*
X972348Y785827D01*
X972735Y785764D01*
X973121Y785693D01*
X973506Y785611D01*
X973888Y785521D01*
X974267Y785420D01*
X974645Y785311D01*
X975019Y785192D01*
X975390Y785065D01*
X975758Y784928D01*
X976123Y784782D01*
X976484Y784627D01*
X976841Y784464D01*
X977194Y784292D01*
X977542Y784111D01*
X977886Y783921D01*
X978226Y783724D01*
X978560Y783518D01*
X978889Y783304D01*
X979213Y783081D01*
X979531Y782851D01*
X979844Y782614D01*
X980150Y782368D01*
X980451Y782115D01*
X980745Y781855D01*
X981033Y781588D01*
X981314Y781314D01*
X981588Y781033D01*
X981855Y780745D01*
X982115Y780451D01*
X982368Y780150D01*
X982614Y779844D01*
X982851Y779531D01*
X983081Y779213D01*
X983304Y778889D01*
X983518Y778560D01*
X983724Y778226D01*
X983921Y777886D01*
X984111Y777542D01*
X984292Y777194D01*
X984464Y776841D01*
X984627Y776484D01*
X984782Y776123D01*
X984928Y775758D01*
X985065Y775390D01*
X985192Y775019D01*
X985311Y774645D01*
X985420Y774267D01*
X985521Y773888D01*
X985611Y773506D01*
X985693Y773121D01*
X985764Y772735D01*
X985827Y772348D01*
X985880Y771959D01*
X985923Y771568D01*
X985957Y771177D01*
X985981Y770785D01*
X985995Y770393D01*
X986000Y770000D01*
X985995Y769607D01*
X985981Y769215D01*
X985957Y768823D01*
X985923Y768432D01*
X985880Y768041D01*
X985827Y767652D01*
X985764Y767265D01*
X985693Y766879D01*
X985611Y766494D01*
X985521Y766112D01*
X985420Y765733D01*
X985311Y765355D01*
X985192Y764981D01*
X985065Y764610D01*
X984928Y764242D01*
X984782Y763877D01*
X984627Y763516D01*
X984464Y763159D01*
X984292Y762806D01*
X984111Y762458D01*
X983921Y762114D01*
X983724Y761774D01*
X983518Y761440D01*
X983304Y761111D01*
X983081Y760787D01*
X982851Y760469D01*
X982614Y760156D01*
X982368Y759850D01*
X982115Y759549D01*
X981855Y759255D01*
X981588Y758967D01*
X981314Y758686D01*
X981033Y758412D01*
X980745Y758145D01*
X980451Y757885D01*
X980150Y757632D01*
X979844Y757386D01*
X979531Y757149D01*
X979213Y756919D01*
X978889Y756696D01*
X978560Y756482D01*
X978226Y756276D01*
X977886Y756079D01*
X977542Y755889D01*
X977194Y755708D01*
X976841Y755536D01*
X976484Y755373D01*
X976123Y755218D01*
X975758Y755072D01*
X975390Y754935D01*
X975019Y754808D01*
X974645Y754689D01*
X974267Y754580D01*
X973888Y754479D01*
X973506Y754389D01*
X973121Y754307D01*
X972735Y754236D01*
X972348Y754173D01*
X971959Y754120D01*
X971568Y754077D01*
X971177Y754043D01*
X970785Y754019D01*
X970393Y754005D01*
X970000Y754000D01*
X969607Y754005D01*
X969215Y754019D01*
X968823Y754043D01*
X968432Y754077D01*
X968041Y754120D01*
X967652Y754173D01*
X967265Y754236D01*
X966879Y754307D01*
X966494Y754389D01*
X966112Y754479D01*
X965733Y754580D01*
X965355Y754689D01*
X964981Y754808D01*
X964610Y754935D01*
X964242Y755072D01*
X963877Y755218D01*
X963516Y755373D01*
X963159Y755536D01*
X962806Y755708D01*
X962458Y755889D01*
X962114Y756079D01*
X961774Y756276D01*
X961440Y756482D01*
X961111Y756696D01*
X960787Y756919D01*
X960469Y757149D01*
X960156Y757386D01*
X959850Y757632D01*
X959549Y757885D01*
X959255Y758145D01*
X958967Y758412D01*
X958686Y758686D01*
X958412Y758967D01*
X958145Y759255D01*
X957885Y759549D01*
X957632Y759850D01*
X957386Y760156D01*
X957149Y760469D01*
X956919Y760787D01*
X956696Y761111D01*
X956482Y761440D01*
X956276Y761774D01*
X956079Y762114D01*
X955889Y762458D01*
X955708Y762806D01*
X955536Y763159D01*
X955373Y763516D01*
X955218Y763877D01*
X955072Y764242D01*
X954935Y764610D01*
X954808Y764981D01*
X954689Y765355D01*
X954580Y765733D01*
X954479Y766112D01*
X954389Y766494D01*
X954307Y766879D01*
X954236Y767265D01*
X954173Y767652D01*
X954120Y768041D01*
X954077Y768432D01*
X954043Y768823D01*
X954019Y769215D01*
X954005Y769607D01*
X954000Y770000D01*
X14000Y30000D02*
X14005Y30393D01*
X14019Y30785D01*
X14043Y31177D01*
X14077Y31568D01*
X14120Y31959D01*
X14173Y32348D01*
X14236Y32735D01*
X14307Y33121D01*
X14389Y33506D01*
X14479Y33888D01*
X14580Y34267D01*
X14689Y34645D01*
X14808Y35019D01*
X14935Y35390D01*
X15072Y35758D01*
X15218Y36123D01*
X15373Y36484D01*
X15536Y36841D01*
X15708Y37194D01*
X15889Y37542D01*
X16079Y37886D01*
X16276Y38226D01*
X16482Y38560D01*
X16696Y38889D01*
X16919Y39213D01*
X17149Y39531D01*
X17386Y39844D01*
X17632Y40150D01*
X17885Y40451D01*
X18145Y40745D01*
X18412Y41033D01*
X18686Y41314D01*
X18967Y41588D01*
X19255Y41855D01*
X19549Y42115D01*
X19850Y42368D01*
X20156Y42614D01*
X20469Y42851D01*
X20787Y43081D01*
X21111Y43304D01*
X21440Y43518D01*
X21774Y43724D01*
X22114Y43921D01*
X22458Y44111D01*
X22806Y44292D01*
X23159Y44464D01*
X23516Y44627D01*
X23877Y44782D01*
X24242Y44928D01*
X24610Y45065D01*
X24981Y45192D01*
X25355Y45311D01*
X25733Y45420D01*
X26112Y45521D01*
X26494Y45611D01*
X26879Y45693D01*
X27265Y45764D01*
X27652Y45827D01*
X28041Y45880D01*
X28432Y45923D01*
X28823Y45957D01*
X29215Y45981D01*
X29607Y45995D01*
X30000Y46000D01*
X30393Y45995D01*
X30785Y45981D01*
X31177Y45957D01*
X31568Y45923D01*
X31959Y45880D01*
X32348Y45827D01*
X32735Y45764D01*
X33121Y45693D01*
X33506Y45611D01*
X33888Y45521D01*
X34267Y45420D01*
X34645Y45311D01*
X35019Y45192D01*
X35390Y45065D01*
X35758Y44928D01*
X36123Y44782D01*
X36484Y44627D01*
X36841Y44464D01*
X37194Y44292D01*
X37542Y44111D01*
X37886Y43921D01*
X38226Y43724D01*
X38560Y43518D01*
X38889Y43304D01*
X39213Y43081D01*
X39531Y42851D01*
X39844Y42614D01*
X40150Y42368D01*
X40451Y42115D01*
X40745Y41855D01*
X41033Y41588D01*
X41314Y41314D01*
X41588Y41033D01*
X41855Y40745D01*
X42115Y40451D01*
X42368Y40150D01*
X42614Y39844D01*
X42851Y39531D01*
X43081Y39213D01*
X43304Y38889D01*
X43518Y38560D01*
X43724Y38226D01*
X43921Y37886D01*
X44111Y37542D01*
X44292Y37194D01*
X44464Y36841D01*
X44627Y36484D01*
X44782Y36123D01*
X44928Y35758D01*
X45065Y35390D01*
X45192Y35019D01*
X45311Y34645D01*
X45420Y34267D01*
X45521Y33888D01*
X45611Y33506D01*
X45693Y33121D01*
X45764Y32735D01*
X45827Y32348D01*
X45880Y31959D01*
X45923Y31568D01*
X45957Y31177D01*
X45981Y30785D01*
X45995Y30393D01*
X46000Y30000D01*
X45995Y29607D01*
X45981Y29215D01*
X45957Y28823D01*
X45923Y28432D01*
X45880Y28041D01*
X45827Y27652D01*
X45764Y27265D01*
X45693Y26879D01*
X45611Y26494D01*
X45521Y26112D01*
X45420Y25733D01*
X45311Y25355D01*
X45192Y24981D01*
X45065Y24610D01*
X44928Y24242D01*
X44782Y23877D01*
X44627Y23516D01*
X44464Y23159D01*
X44292Y22806D01*
X44111Y22458D01*
X43921Y22114D01*
X43724Y21774D01*
X43518Y21440D01*
X43304Y21111D01*
X43081Y20787D01*
X42851Y20469D01*
X42614Y20156D01*
X42368Y19850D01*
X42115Y19549D01*
X41855Y19255D01*
X41588Y18967D01*
X41314Y18686D01*
X41033Y18412D01*
X40745Y18145D01*
X40451Y17885D01*
X40150Y17632D01*
X39844Y17386D01*
X39531Y17149D01*
X39213Y16919D01*
X38889Y16696D01*
X38560Y16482D01*
X38226Y16276D01*
X37886Y16079D01*
X37542Y15889D01*
X37194Y15708D01*
X36841Y15536D01*
X36484Y15373D01*
X36123Y15218D01*
X35758Y15072D01*
X35390Y14935D01*
X35019Y14808D01*
X34645Y14689D01*
X34267Y14580D01*
X33888Y14479D01*
X33506Y14389D01*
X33121Y14307D01*
X32735Y14236D01*
X32348Y14173D01*
X31959Y14120D01*
X31568Y14077D01*
X31177Y14043D01*
X30785Y14019D01*
X30393Y14005D01*
X30000Y14000D01*
X29607Y14005D01*
X29215Y14019D01*
X28823Y14043D01*
X28432Y14077D01*
X28041Y14120D01*
X27652Y14173D01*
X27265Y14236D01*
X26879Y14307D01*
X26494Y14389D01*
X26112Y14479D01*
X25733Y14580D01*
X25355Y14689D01*
X24981Y14808D01*
X24610Y14935D01*
X24242Y15072D01*
X23877Y15218D01*
X23516Y15373D01*
X23159Y15536D01*
X22806Y15708D01*
X22458Y15889D01*
X22114Y16079D01*
X21774Y16276D01*
X21440Y16482D01*
X21111Y16696D01*
X20787Y16919D01*
X20469Y17149D01*
X20156Y17386D01*
X19850Y17632D01*
X19549Y17885D01*
X19255Y18145D01*
X18967Y18412D01*
X18686Y18686D01*
X18412Y18967D01*
X18145Y19255D01*
X17885Y19549D01*
X17632Y19850D01*
X17386Y20156D01*
X17149Y20469D01*
X16919Y20787D01*
X16696Y21111D01*
X16482Y21440D01*
X16276Y21774D01*
X16079Y22114D01*
X15889Y22458D01*
X15708Y22806D01*
X15536Y23159D01*
X15373Y23516D01*
X15218Y23877D01*
X15072Y24242D01*
X14935Y24610D01*
X14808Y24981D01*
X14689Y25355D01*
X14580Y25733D01*
X14479Y26112D01*
X14389Y26494D01*
X14307Y26879D01*
X14236Y27265D01*
X14173Y27652D01*
X14120Y28041D01*
X14077Y28432D01*
X14043Y28823D01*
X14019Y29215D01*
X14005Y29607D01*
X14000Y30000D01*
X954000Y30000D02*
X954005Y30393D01*
X954019Y30785D01*
X954043Y31177D01*
X954077Y31568D01*
X954120Y31959D01*
X954173Y32348D01*
X954236Y32735D01*
X954307Y33121D01*
X954389Y33506D01*
X954479Y33888D01*
X954580Y34267D01*
X954689Y34645D01*
X954808Y35019D01*
X954935Y35390D01*
X955072Y35758D01*
X955218Y36123D01*
X955373Y36484D01*
X955536Y36841D01*
X955708Y37194D01*
X955889Y37542D01*
X956079Y37886D01*
X956276Y38226D01*
X956482Y38560D01*
X956696Y38889D01*
X956919Y39213D01*
X957149Y39531D01*
X957386Y39844D01*
X957632Y40150D01*
X957885Y40451D01*
X958145Y40745D01*
X958412Y41033D01*
X958686Y41314D01*
X958967Y41588D01*
X959255Y41855D01*
X959549Y42115D01*
X959850Y42368D01*
X960156Y42614D01*
X960469Y42851D01*
X960787Y43081D01*
X961111Y43304D01*
X961440Y43518D01*
X961774Y43724D01*
X962114Y43921D01*
X962458Y44111D01*
X962806Y44292D01*
X963159Y44464D01*
X963516Y44627D01*
X963877Y44782D01*
X964242Y44928D01*
X964610Y45065D01*
X964981Y45192D01*
X965355Y45311D01*
X965733Y45420D01*
X966112Y45521D01*
X966494Y45611D01*
X966879Y45693D01*
X967265Y45764D01*
X967652Y45827D01*
X968041Y45880D01*
X968432Y45923D01*
X968823Y45957D01*
X969215Y45981D01*
X969607Y45995D01*
X970000Y46000D01*
X970393Y45995D01*
X970785Y45981D01*
X971177Y45957D01*
X971568Y45923D01*
X971959Y45880D01*
X972348Y45827D01*
X972735Y45764D01*
X973121Y45693D01*
X973506Y45611D01*
X973888Y45521D01*
X974267Y45420D01*
X974645Y45311D01*
X975019Y45192D01*
X975390Y45065D01*
X975758Y44928D01*
X976123Y44782D01*
X976484Y44627D01*
X976841Y44464D01*
X977194Y44292D01*
X977542Y44111D01*
X977886Y43921D01*
X978226Y43724D01*
X978560Y43518D01*
X978889Y43304D01*
X979213Y43081D01*
X979531Y42851D01*
X979844Y42614D01*
X980150Y42368D01*
X980451Y42115D01*
X980745Y41855D01*
X981033Y41588D01*
X981314Y41314D01*
X981588Y41033D01*
X981855Y40745D01*
X982115Y40451D01*
X982368Y40150D01*
X982614Y39844D01*
X982851Y39531D01*
X983081Y39213D01*
X983304Y38889D01*
X983518Y38560D01*
X983724Y38226D01*
X983921Y37886D01*
X984111Y37542D01*
X984292Y37194D01*
X984464Y36841D01*
X984627Y36484D01*
X984782Y36123D01*
X984928Y35758D01*
X985065Y35390D01*
X985192Y35019D01*
X985311Y34645D01*
X985420Y34267D01*
X985521Y33888D01*
X985611Y33506D01*
X985693Y33121D01*
X985764Y32735D01*
X985827Y32348D01*
X985880Y31959D01*
X985923Y31568D01*
X985957Y31177D01*
X985981Y30785D01*
X985995Y30393D01*
X986000Y30000D01*
X985995Y29607D01*
X985981Y29215D01*
X985957Y28823D01*
X985923Y28432D01*
X985880Y28041D01*
X985827Y27652D01*
X985764Y27265D01*
X985693Y26879D01*
X985611Y26494D01*
X985521Y26112D01*
X985420Y25733D01*
X985311Y25355D01*
X985192Y24981D01*
X985065Y24610D01*
X984928Y24242D01*
X984782Y23877D01*
X984627Y23516D01*
X984464Y23159D01*
X984292Y22806D01*
X984111Y22458D01*
X983921Y22114D01*
X983724Y21774D01*
X983518Y21440D01*
X983304Y21111D01*
X983081Y20787D01*
X982851Y20469D01*
X982614Y20156D01*
X982368Y19850D01*
X982115Y19549D01*
X981855Y19255D01*
X981588Y18967D01*
X981314Y18686D01*
X981033Y18412D01*
X980745Y18145D01*
X980451Y17885D01*
X980150Y17632D01*
X979844Y17386D01*
X979531Y17149D01*
X979213Y16919D01*
X978889Y16696D01*
X978560Y16482D01*
X978226Y16276D01*
X977886Y16079D01*
X977542Y15889D01*
X977194Y15708D01*
X976841Y15536D01*
X976484Y15373D01*
X976123Y15218D01*
X975758Y15072D01*
X975390Y14935D01*
X975019Y14808D01*
X974645Y14689D01*
X974267Y14580D01*
X973888Y14479D01*
X973506Y14389D01*
X973121Y14307D01*
X972735Y14236D01*
X972348Y14173D01*
X971959Y14120D01*
X971568Y14077D01*
X971177Y14043D01*
X970785Y14019D01*
X970393Y14005D01*
X970000Y14000D01*
X969607Y14005D01*
X969215Y14019D01*
X968823Y14043D01*
X968432Y14077D01*
X968041Y14120D01*
X967652Y14173D01*
X967265Y14236D01*
X966879Y14307D01*
X966494Y14389D01*
X966112Y14479D01*
X965733Y14580D01*
X965355Y14689D01*
X964981Y14808D01*
X964610Y14935D01*
X964242Y15072D01*
X963877Y15218D01*
X963516Y15373D01*
X963159Y15536D01*
X962806Y15708D01*
X962458Y15889D01*
X962114Y16079D01*
X961774Y16276D01*
X961440Y16482D01*
X961111Y16696D01*
X960787Y16919D01*
X960469Y17149D01*
X960156Y17386D01*
X959850Y17632D01*
X959549Y17885D01*
X959255Y18145D01*
X958967Y18412D01*
X958686Y18686D01*
X958412Y18967D01*
X958145Y19255D01*
X957885Y19549D01*
X957632Y19850D01*
X957386Y20156D01*
X957149Y20469D01*
X956919Y20787D01*
X956696Y21111D01*
X956482Y21440D01*
X956276Y21774D01*
X956079Y22114D01*
X955889Y22458D01*
X955708Y22806D01*
X955536Y23159D01*
X955373Y23516D01*
X955218Y23877D01*
X955072Y24242D01*
X954935Y24610D01*
X954808Y24981D01*
X954689Y25355D01*
X954580Y25733D01*
X954479Y26112D01*
X954389Y26494D01*
X954307Y26879D01*
X954236Y27265D01*
X954173Y27652D01*
X954120Y28041D01*
X954077Y28432D01*
X954043Y28823D01*
X954019Y29215D01*
X954005Y29607D01*
X954000Y30000D01*
X595000Y520000D02*
X595008Y520614D01*
X595030Y521227D01*
X595068Y521839D01*
X595120Y522450D01*
X595188Y523060D01*
X595271Y523668D01*
X595368Y524274D01*
X595480Y524877D01*
X595607Y525478D01*
X595749Y526075D01*
X595906Y526668D01*
X596076Y527257D01*
X596262Y527842D01*
X596461Y528422D01*
X596675Y528997D01*
X596903Y529567D01*
X597145Y530131D01*
X597400Y530689D01*
X597669Y531240D01*
X597952Y531785D01*
X598248Y532322D01*
X598557Y532853D01*
X598879Y533375D01*
X599213Y533889D01*
X599560Y534395D01*
X599920Y534892D01*
X600291Y535381D01*
X600675Y535860D01*
X601070Y536329D01*
X601476Y536789D01*
X601894Y537239D01*
X602322Y537678D01*
X602761Y538106D01*
X603211Y538524D01*
X603671Y538930D01*
X604140Y539325D01*
X604619Y539709D01*
X605108Y540080D01*
X605605Y540440D01*
X606111Y540787D01*
X606625Y541121D01*
X607147Y541443D01*
X607678Y541752D01*
X608215Y542048D01*
X608760Y542331D01*
X609311Y542600D01*
X609869Y542855D01*
X610433Y543097D01*
X611003Y543325D01*
X611578Y543539D01*
X612158Y543738D01*
X612743Y543924D01*
X613332Y544094D01*
X613925Y544251D01*
X614522Y544393D01*
X615123Y544520D01*
X615726Y544632D01*
X616332Y544729D01*
X616940Y544812D01*
X617550Y544880D01*
X618161Y544932D01*
X618773Y544970D01*
X619386Y544992D01*
X620000Y545000D01*
X620614Y544992D01*
X621227Y544970D01*
X621839Y544932D01*
X622450Y544880D01*
X623060Y544812D01*
X623668Y544729D01*
X624274Y544632D01*
X624877Y544520D01*
X625478Y544393D01*
X626075Y544251D01*
X626668Y544094D01*
X627257Y543924D01*
X627842Y543738D01*
X628422Y543539D01*
X628997Y543325D01*
X629567Y543097D01*
X630131Y542855D01*
X630689Y542600D01*
X631240Y542331D01*
X631785Y542048D01*
X632322Y541752D01*
X632853Y541443D01*
X633375Y541121D01*
X633889Y540787D01*
X634395Y540440D01*
X634892Y540080D01*
X635381Y539709D01*
X635860Y539325D01*
X636329Y538930D01*
X636789Y538524D01*
X637239Y538106D01*
X637678Y537678D01*
X638106Y537239D01*
X638524Y536789D01*
X638930Y536329D01*
X639325Y535860D01*
X639709Y535381D01*
X640080Y534892D01*
X640440Y534395D01*
X640787Y533889D01*
X641121Y533375D01*
X641443Y532853D01*
X641752Y532322D01*
X642048Y531785D01*
X642331Y531240D01*
X642600Y530689D01*
X642855Y530131D01*
X643097Y529567D01*
X643325Y528997D01*
X643539Y528422D01*
X643738Y527842D01*
X643924Y527257D01*
X644094Y526668D01*
X644251Y526075D01*
X644393Y525478D01*
X644520Y524877D01*
X644632Y524274D01*
X644729Y523668D01*
X644812Y523060D01*
X644880Y522450D01*
X644932Y521839D01*
X644970Y521227D01*
X644992Y520614D01*
X645000Y520000D01*
X644992Y519386D01*
X644970Y518773D01*
X644932Y518161D01*
X644880Y517550D01*
X644812Y516940D01*
X644729Y516332D01*
X644632Y515726D01*
X644520Y515123D01*
X644393Y514522D01*
X644251Y513925D01*
X644094Y513332D01*
X643924Y512743D01*
X643738Y512158D01*
X643539Y511578D01*
X643325Y511003D01*
X643097Y510433D01*
X642855Y509869D01*
X642600Y509311D01*
X642331Y508760D01*
X642048Y508215D01*
X641752Y507678D01*
X641443Y507147D01*
X641121Y506625D01*
X640787Y506111D01*
X640440Y505605D01*
X640080Y505108D01*
X639709Y504619D01*
X639325Y504140D01*
X638930Y503671D01*
X638524Y503211D01*
X638106Y502761D01*
X637678Y502322D01*
X637239Y501894D01*
X636789Y501476D01*
X636329Y501070D01*
X635860Y500675D01*
X635381Y500291D01*
X634892Y499920D01*
X634395Y499560D01*
X633889Y499213D01*
X633375Y498879D01*
X632853Y498557D01*
X632322Y498248D01*
X631785Y497952D01*
X631240Y497669D01*
X630689Y497400D01*
X630131Y497145D01*
X629567Y496903D01*
X628997Y496675D01*
X628422Y496461D01*
X627842Y496262D01*
X627257Y496076D01*
X626668Y495906D01*
X626075Y495749D01*
X625478Y495607D01*
X624877Y495480D01*
X624274Y495368D01*
X623668Y495271D01*
X623060Y495188D01*
X622450Y495120D01*
X621839Y495068D01*
X621227Y495030D01*
X620614Y495008D01*
X620000Y495000D01*
X619386Y495008D01*
X618773Y495030D01*
X618161Y495068D01*
X617550Y495120D01*
X616940Y495188D01*
X616332Y495271D01*
X615726Y495368D01*
X615123Y495480D01*
X614522Y495607D01*
X613925Y495749D01*
X613332Y495906D01*
X612743Y496076D01*
X612158Y496262D01*
X611578Y496461D01*
X611003Y496675D01*
X610433Y496903D01*
X609869Y497145D01*
X609311Y497400D01*
X608760Y497669D01*
X608215Y497952D01*
X607678Y498248D01*
X607147Y498557D01*
X606625Y498879D01*
X606111Y499213D01*
X605605Y499560D01*
X605108Y499920D01*
X604619Y500291D01*
X604140Y500675D01*
X603671Y501070D01*
X603211Y501476D01*
X602761Y501894D01*
X602322Y502322D01*
X601894Y502761D01*
X601476Y503211D01*
X601070Y503671D01*
X600675Y504140D01*
X600291Y504619D01*
X599920Y505108D01*
X599560Y505605D01*
X599213Y506111D01*
X598879Y506625D01*
X598557Y507147D01*
X598248Y507678D01*
X597952Y508215D01*
X597669Y508760D01*
X597400Y509311D01*
X597145Y509869D01*
X596903Y510433D01*
X596675Y511003D01*
X596461Y511578D01*
X596262Y512158D01*
X596076Y512743D01*
X595906Y513332D01*
X595749Y513925D01*
X595607Y514522D01*
X595480Y515123D01*
X595368Y515726D01*
X595271Y516332D01*
X595188Y516940D01*
X595120Y517550D01*
X595068Y518161D01*
X595030Y518773D01*
X595008Y519386D01*
X595000Y520000D01*
D11*
X0Y0D02*
X1000000Y0D01*
X1000000Y800000D01*
X0Y800000D01*
X0Y0D01*
X56000Y769476D02*
X55932Y768431D01*
X55795Y767392D01*
X55590Y766365D01*
X55319Y765353D01*
X54983Y764361D01*
X54582Y763393D01*
X54118Y762454D01*
X53595Y761546D01*
X53013Y760675D01*
X52375Y759844D01*
X51684Y759057D01*
X50943Y758316D01*
X50156Y757625D01*
X49325Y756988D01*
X48454Y756406D01*
X47546Y755882D01*
X46607Y755418D01*
X45639Y755017D01*
X44647Y754681D01*
X43635Y754410D01*
X42608Y754205D01*
X41569Y754069D01*
X40524Y754000D01*
X39476Y754000D01*
X38431Y754069D01*
X37392Y754205D01*
X36365Y754410D01*
X35353Y754681D01*
X34361Y755017D01*
X33393Y755418D01*
X32454Y755882D01*
X31546Y756406D01*
X30675Y756988D01*
X29844Y757625D01*
X29057Y758316D01*
X28316Y759057D01*
X27625Y759844D01*
X26988Y760675D01*
X26406Y761546D01*
X25882Y762454D01*
X25418Y763393D01*
X25017Y764361D01*
X24681Y765353D01*
X24410Y766365D01*
X24205Y767392D01*
X24069Y768431D01*
X24000Y769476D01*
X24000Y770524D01*
X24069Y771569D01*
X24205Y772608D01*
X24410Y773635D01*
X24681Y774647D01*
X25017Y775639D01*
X25418Y776607D01*
X25882Y777546D01*
X26406Y778454D01*
X26988Y779325D01*
X27625Y780156D01*
X28316Y780943D01*
X29057Y781684D01*
X29844Y782375D01*
X30675Y783013D01*
X31546Y783595D01*
X32454Y784118D01*
X33393Y784582D01*
X34361Y784983D01*
X35353Y785319D01*
X36365Y785590D01*
X37392Y785795D01*
X38431Y785932D01*
X39476Y786000D01*
X40524Y786000D01*
X41569Y785932D01*
X42608Y785795D01*
X43635Y785590D01*
X44647Y785319D01*
X45639Y784983D01*
X46607Y784582D01*
X47546Y784118D01*
X48454Y783595D01*
X49325Y783013D01*
X50156Y782375D01*
X50943Y781684D01*
X51684Y780943D01*
X52375Y780156D01*
X53013Y779325D01*
X53595Y778454D01*
X54118Y777546D01*
X54582Y776607D01*
X54983Y775639D01*
X55319Y774647D01*
X55590Y773635D01*
X55795Y772608D01*
X55932Y771569D01*
X56000Y770524D01*
X56000Y769476D01*
X986000Y769476D02*
X985932Y768431D01*
X985795Y767392D01*
X985590Y766365D01*
X985319Y765353D01*
X984983Y764361D01*
X984582Y763393D01*
X984118Y762454D01*
X983595Y761546D01*
X983013Y760675D01*
X982375Y759844D01*
X981684Y759057D01*
X980943Y758316D01*
X980156Y757625D01*
X979325Y756988D01*
X978454Y756406D01*
X977546Y755882D01*
X976607Y755418D01*
X975639Y755017D01*
X974647Y754681D01*
X973635Y754410D01*
X972608Y754205D01*
X971569Y754069D01*
X970524Y754000D01*
X969476Y754000D01*
X968431Y754069D01*
X967392Y754205D01*
X966365Y754410D01*
X965353Y754681D01*
X964361Y755017D01*
X963393Y755418D01*
X962454Y755882D01*
X961546Y756406D01*
X960675Y756988D01*
X959844Y757625D01*
X959057Y758316D01*
X958316Y759057D01*
X957625Y759844D01*
X956988Y760675D01*
X956406Y761546D01*
X955882Y762454D01*
X955418Y763393D01*
X955017Y764361D01*
X954681Y765353D01*
X954410Y766365D01*
X954205Y767392D01*
X954069Y768431D01*
X954000Y769476D01*
X954000Y770524D01*
X954069Y771569D01*
X954205Y772608D01*
X954410Y773635D01*
X954681Y774647D01*
X955017Y775639D01*
X955418Y776607D01*
X955882Y777546D01*
X956406Y778454D01*
X956988Y779325D01*
X957625Y780156D01*
X958316Y780943D01*
X959057Y781684D01*
X959844Y782375D01*
X960675Y783013D01*
X961546Y783595D01*
X962454Y784118D01*
X963393Y784582D01*
X964361Y784983D01*
X965353Y785319D01*
X966365Y785590D01*
X967392Y785795D01*
X968431Y785932D01*
X969476Y786000D01*
X970524Y786000D01*
X971569Y785932D01*
X972608Y785795D01*
X973635Y785590D01*
X974647Y785319D01*
X975639Y784983D01*
X976607Y784582D01*
X977546Y784118D01*
X978454Y783595D01*
X979325Y783013D01*
X980156Y782375D01*
X980943Y781684D01*
X981684Y780943D01*
X982375Y780156D01*
X983013Y779325D01*
X983595Y778454D01*
X984118Y777546D01*
X984582Y776607D01*
X984983Y775639D01*
X985319Y774647D01*
X985590Y773635D01*
X985795Y772608D01*
X985932Y771569D01*
X986000Y770524D01*
X986000Y769476D01*
X46000Y29476D02*
X45932Y28431D01*
X45795Y27392D01*
X45590Y26365D01*
X45319Y25353D01*
X44983Y24361D01*
X44582Y23393D01*
X44118Y22454D01*
X43595Y21546D01*
X43013Y20675D01*
X42375Y19844D01*
X41684Y19057D01*
X40943Y18316D01*
X40156Y17625D01*
X39325Y16988D01*
X38454Y16406D01*
X37546Y15882D01*
X36607Y15418D01*
X35639Y15017D01*
X34647Y14681D01*
X33635Y14410D01*
X32608Y14205D01*
X31569Y14069D01*
X30524Y14000D01*
X29476Y14000D01*
X28431Y14069D01*
X27392Y14205D01*
X26365Y14410D01*
X25353Y14681D01*
X24361Y15017D01*
X23393Y15418D01*
X22454Y15882D01*
X21546Y16406D01*
X20675Y16988D01*
X19844Y17625D01*
X19057Y18316D01*
X18316Y19057D01*
X17625Y19844D01*
X16988Y20675D01*
X16406Y21546D01*
X15882Y22454D01*
X15418Y23393D01*
X15017Y24361D01*
X14681Y25353D01*
X14410Y26365D01*
X14205Y27392D01*
X14069Y28431D01*
X14000Y29476D01*
X14000Y30524D01*
X14069Y31569D01*
X14205Y32608D01*
X14410Y33635D01*
X14681Y34647D01*
X15017Y35639D01*
X15418Y36607D01*
X15882Y37546D01*
X16406Y38454D01*
X16988Y39325D01*
X17625Y40156D01*
X18316Y40943D01*
X19057Y41684D01*
X19844Y42375D01*
X20675Y43013D01*
X21546Y43595D01*
X22454Y44118D01*
X23393Y44582D01*
X24361Y44983D01*
X25353Y45319D01*
X26365Y45590D01*
X27392Y45795D01*
X28431Y45932D01*
X29476Y46000D01*
X30524Y46000D01*
X31569Y45932D01*
X32608Y45795D01*
X33635Y45590D01*
X34647Y45319D01*
X35639Y44983D01*
X36607Y44582D01*
X37546Y44118D01*
X38454Y43595D01*
X39325Y43013D01*
X40156Y42375D01*
X40943Y41684D01*
X41684Y40943D01*
X42375Y40156D01*
X43013Y39325D01*
X43595Y38454D01*
X44118Y37546D01*
X44582Y36607D01*
X44983Y35639D01*
X45319Y34647D01*
X45590Y33635D01*
X45795Y32608D01*
X45932Y31569D01*
X46000Y30524D01*
X46000Y29476D01*
X986000Y29476D02*
X985932Y28431D01*
X985795Y27392D01*
X985590Y26365D01*
X985319Y25353D01*
X984983Y24361D01*
X984582Y23393D01*
X984118Y22454D01*
X983595Y21546D01*
X983013Y20675D01*
X982375Y19844D01*
X981684Y19057D01*
X980943Y18316D01*
X980156Y17625D01*
X979325Y16988D01*
X978454Y16406D01*
X977546Y15882D01*
X976607Y15418D01*
X975639Y15017D01*
X974647Y14681D01*
X973635Y14410D01*
X972608Y14205D01*
X971569Y14069D01*
X970524Y14000D01*
X969476Y14000D01*
X968431Y14069D01*
X967392Y14205D01*
X966365Y14410D01*
X965353Y14681D01*
X964361Y15017D01*
X963393Y15418D01*
X962454Y15882D01*
X961546Y16406D01*
X960675Y16988D01*
X959844Y17625D01*
X959057Y18316D01*
X958316Y19057D01*
X957625Y19844D01*
X956988Y20675D01*
X956406Y21546D01*
X955882Y22454D01*
X955418Y23393D01*
X955017Y24361D01*
X954681Y25353D01*
X954410Y26365D01*
X954205Y27392D01*
X954069Y28431D01*
X954000Y29476D01*
X954000Y30524D01*
X954069Y31569D01*
X954205Y32608D01*
X954410Y33635D01*
X954681Y34647D01*
X955017Y35639D01*
X955418Y36607D01*
X955882Y37546D01*
X956406Y38454D01*
X956988Y39325D01*
X957625Y40156D01*
X958316Y40943D01*
X959057Y41684D01*
X959844Y42375D01*
X960675Y43013D01*
X961546Y43595D01*
X962454Y44118D01*
X963393Y44582D01*
X964361Y44983D01*
X965353Y45319D01*
X966365Y45590D01*
X967392Y45795D01*
X968431Y45932D01*
X969476Y46000D01*
X970524Y46000D01*
X971569Y45932D01*
X972608Y45795D01*
X973635Y45590D01*
X974647Y45319D01*
X975639Y44983D01*
X976607Y44582D01*
X977546Y44118D01*
X978454Y43595D01*
X979325Y43013D01*
X980156Y42375D01*
X980943Y41684D01*
X981684Y40943D01*
X982375Y40156D01*
X983013Y39325D01*
X983595Y38454D01*
X984118Y37546D01*
X984582Y36607D01*
X984983Y35639D01*
X985319Y34647D01*
X985590Y33635D01*
X985795Y32608D01*
X985932Y31569D01*
X986000Y30524D01*
X986000Y29476D01*
X645000Y519299D02*
X644921Y517898D01*
X644764Y516504D01*
X644529Y515121D01*
X644217Y513753D01*
X643829Y512405D01*
X643365Y511081D01*
X642829Y509785D01*
X642220Y508521D01*
X641541Y507293D01*
X640795Y506105D01*
X639983Y504961D01*
X639108Y503864D01*
X638174Y502818D01*
X637182Y501826D01*
X636136Y500892D01*
X635039Y500017D01*
X633895Y499205D01*
X632707Y498459D01*
X631479Y497780D01*
X630215Y497171D01*
X628919Y496635D01*
X627595Y496171D01*
X626247Y495783D01*
X624879Y495471D01*
X623496Y495236D01*
X622102Y495079D01*
X620701Y495000D01*
X619299Y495000D01*
X617898Y495079D01*
X616504Y495236D01*
X615121Y495471D01*
X613753Y495783D01*
X612405Y496171D01*
X611081Y496635D01*
X609785Y497171D01*
X608521Y497780D01*
X607293Y498459D01*
X606105Y499205D01*
X604961Y500017D01*
X603864Y500892D01*
X602818Y501826D01*
X601826Y502818D01*
X600892Y503864D01*
X600017Y504961D01*
X599205Y506105D01*
X598459Y507293D01*
X597780Y508521D01*
X597171Y509785D01*
X596635Y511081D01*
X596171Y512405D01*
X595783Y513753D01*
X595471Y515121D01*
X595236Y516504D01*
X595079Y517898D01*
X595000Y519299D01*
X595000Y520701D01*
X595079Y522102D01*
X595236Y523496D01*
X595471Y524879D01*
X595783Y526247D01*
X596171Y527595D01*
X596635Y528919D01*
X597171Y530215D01*
X597780Y531479D01*
X598459Y532707D01*
X599205Y533895D01*
X600017Y535039D01*
X600892Y536136D01*
X601826Y537182D01*
X602818Y538174D01*
X603864Y539108D01*
X604961Y539983D01*
X606105Y540795D01*
X607293Y541541D01*
X608521Y542220D01*
X609785Y542829D01*
X611081Y543365D01*
X612405Y543829D01*
X613753Y544217D01*
X615121Y544529D01*
X616504Y544764D01*
X617898Y544921D01*
X619299Y545000D01*
X620701Y545000D01*
X622102Y544921D01*
X623496Y544764D01*
X624879Y544529D01*
X626247Y544217D01*
X627595Y543829D01*
X628919Y543365D01*
X630215Y542829D01*
X631479Y542220D01*
X632707Y541541D01*
X633895Y540795D01*
X635039Y539983D01*
X636136Y539108D01*
X637182Y538174D01*
X638174Y537182D01*
X639108Y536136D01*
X639983Y535039D01*
X640795Y533895D01*
X641541Y532707D01*
X642220Y531479D01*
X642829Y530215D01*
X643365Y528919D01*
X643829Y527595D01*
X644217Y526247D01*
X644529Y524879D01*
X644764Y523496D01*
X644921Y522102D01*
X645000Y520701D01*
X645000Y519299D01*
M02*
